<?xml version="1.0" encoding="utf-8"?>
<!-- Generator: Adobe Illustrator 26.0.3, SVG Export Plug-In . SVG Version: 6.00 Build 0)  -->
<svg version="1.1" id="Layer_1" xmlns="http://www.w3.org/2000/svg" xmlns:xlink="http://www.w3.org/1999/xlink" x="0px" y="0px"
	 viewBox="0 0 512 512" style="enable-background:new 0 0 512 512;" xml:space="preserve">
<path d="M356.5,23.9c60.5,30.1,100,84.3,100,167.7c0,65.9-27.7,119.4-65.3,153.3c-36.2,32.7-86.8,50.9-131,34.2
	c-14.1-5.3-25.9-13.1-35.8-22.4l-26.9,103.4c-4.2,16.9-31.7,55-44.7,51.7c-13.5-3.4-17.7-50.6-13.5-67.5L187,249.5
	c-14-46.5-9-89.5,23.8-111.4c6.5-4.4,15.4-7.7,25.6-6.9c10.1,0.7,18.1,5.1,23.8,9.9c9.3,7.8,13.4,20.2,10.5,31.9l-24.1,106.6
	c1.8,7.3,4.1,14.3,7,20.6c7.2,15.6,17,25.6,29.3,30.3c13.9,5.3,39.9,1.4,65.9-21.9c24.5-22.2,44.4-69.2,44.4-117
	c0-58.7-29.8-98-69.7-117.8c-41-20.4-93.4-20.5-137,3.4c-42.7,23.4-60.4,59.3-65.2,94.4c-5.1,37.1-2.9,67.4,18.2,88.4
	c6.9,6.9,0,29.6-10.6,47.4c-14.5,9.8-37.7-13.4-47.6-27.9C70,263.1,58.7,214.5,65.5,165.3c7-51.3,31.9-106.7,95.2-141.4
	C222.7-10.1,297.1-5.7,356.5,23.9z"/>
</svg>
