<?xml version="1.0" encoding="utf-8"?>
<!-- Generator: Adobe Illustrator 26.0.3, SVG Export Plug-In . SVG Version: 6.00 Build 0)  -->
<svg version="1.1" id="Layer_1" xmlns="http://www.w3.org/2000/svg" xmlns:xlink="http://www.w3.org/1999/xlink" x="0px" y="0px"
	 viewBox="0 0 100 100" style="enable-background:new 0 0 100 100;" xml:space="preserve">
<g id="XMLID_826_">
	<path id="XMLID_827_" d="M98.5,18.5c-1.6,0.7-3.2,1.3-4.8,1.8c2-2.2,3.4-4.8,4.4-7.7c0.2-0.6,0-1.3-0.5-1.8
		c-0.5-0.4-1.3-0.5-1.8-0.1c-3.5,2.1-7.3,3.6-11.3,4.4c-4-3.9-9.4-6.1-15-6.1c-11.8,0-21.5,9.6-21.5,21.5c0,0.9,0.1,1.9,0.2,2.8
		c-14.7-1.3-28.3-8.5-37.7-20C10,12.9,9.5,12.7,9,12.7c-0.5,0-1,0.3-1.3,0.8c-1.9,3.3-2.9,7-2.9,10.8c0,5.2,1.8,10.1,5.1,13.9
		c-1-0.3-2-0.8-2.9-1.3c-0.5-0.3-1.1-0.3-1.6,0c-0.5,0.3-0.8,0.8-0.8,1.4c0,0.1,0,0.2,0,0.3c0,7.7,4.2,14.7,10.5,18.5
		c-0.5-0.1-1.1-0.1-1.6-0.2c-0.6-0.1-1.1,0.1-1.5,0.5c-0.4,0.4-0.5,1-0.3,1.6c2.4,7.3,8.4,12.7,15.7,14.4c-6.1,3.8-13,5.8-20.3,5.8
		c-1.5,0-3-0.1-4.5-0.3c-0.7-0.1-1.5,0.4-1.7,1.1c-0.3,0.7,0,1.5,0.6,1.9c9.4,6,20.2,9.2,31.3,9.2C54.7,91,68.3,80.7,76,72
		c9.5-10.8,15-25.1,15-39.2c0-0.6,0-1.2,0-1.8c3.7-2.8,7-6.2,9.6-10.2c0.4-0.6,0.4-1.4-0.1-1.9C99.9,18.4,99.2,18.3,98.5,18.5z"/>
</g>
</svg>
