<?xml version="1.0" encoding="utf-8"?>
<!-- Generator: Adobe Illustrator 26.0.3, SVG Export Plug-In . SVG Version: 6.00 Build 0)  -->
<svg version="1.1" id="Layer_1" xmlns="http://www.w3.org/2000/svg" xmlns:xlink="http://www.w3.org/1999/xlink" x="0px" y="0px"
	 viewBox="0 0 100 100" style="enable-background:new 0 0 100 100;" xml:space="preserve">
<path d="M11.4,77.3C5.1,77.3,0,82.4,0,88.6C0,94.9,5.1,100,11.4,100c6.3,0,11.4-5.1,11.4-11.4C22.7,82.3,17.6,77.3,11.4,77.3z M0,0
	v18.2c45.2,0,81.8,36.6,81.8,81.8H100C100,44.8,55.2,0,0,0z M0,36.4v18.2c25.1,0,45.4,20.4,45.4,45.4h18.2
	C63.6,64.8,35.1,36.4,0,36.4z"/>
</svg>
