<?xml version="1.0" encoding="utf-8"?>
<!-- Generator: Adobe Illustrator 26.0.3, SVG Export Plug-In . SVG Version: 6.00 Build 0)  -->
<svg version="1.1" id="Layer_1" xmlns="http://www.w3.org/2000/svg" xmlns:xlink="http://www.w3.org/1999/xlink" x="0px" y="0px"
	 viewBox="0 0 100 100" style="enable-background:new 0 0 100 100;" xml:space="preserve">
<path d="M50,0C22.4,0,0,22.4,0,50c0,27.6,22.4,50,50,50c27.6,0,50-22.4,50-50C100,22.4,77.6,0,50,0z M24.6,68.4
	c5.8-1.8,11.7-2.7,17.7-2.7c10.1,0,20,2.5,28.7,7.4c0.5,0.3,1,1.2,1.2,2.4c0.2,1.2,0.1,2.4-0.2,3c-0.4,0.8-1.3,1.3-2.2,1.3
	c-0.5,0-0.9-0.1-1.3-0.3c-8-4.4-17.1-6.7-26.2-6.7c-5.5,0-11,0.8-16.1,2.4c-0.3,0.1-0.5,0.1-0.8,0.1c-1.1,0-2.1-0.7-2.4-1.8
	C22.5,72,23.4,68.7,24.6,68.4z M22.4,49.9c6.5-1.8,13.1-2.6,19.8-2.6c12.1,0,24,2.9,34.6,8.4c0.7,0.4,1.3,1,1.5,1.8
	c0.3,0.8,0.2,1.6-0.2,2.4c-0.9,1.9-2.1,3.1-2.8,3.1c-0.5,0-1-0.1-1.5-0.4C64.2,57.5,53.5,55,42.3,55c-6.2,0-12.4,0.8-18.2,2.4
	c-0.3,0.1-0.5,0.1-0.8,0.1c-1.4,0-2.6-0.9-3-2.3C19.8,53.4,20.9,50.4,22.4,49.9z M21.9,37.9C21.6,38,21.3,38,21,38
	c-1.7,0-3.2-1.1-3.6-2.8c-0.5-2.1,0.8-4.5,2.7-5c7.3-1.8,14.8-2.7,22.2-2.7c14.4,0,28.1,3.2,40.9,9.6c0.9,0.4,1.5,1.2,1.9,2.1
	c0.3,0.9,0.2,1.9-0.2,2.8c-0.6,1.2-1.9,2.5-3.3,2.5c-0.5,0-1.1-0.1-1.6-0.4c-11.7-5.9-24.4-8.9-37.7-8.9
	C35.5,35.4,28.6,36.3,21.9,37.9z"/>
</svg>
