<?xml version="1.0" encoding="utf-8"?>
<svg enable-background="new 0 0 26 26" id="Слой_1" version="1.1" viewBox="0 0 26 26" xmlns="http://www.w3.org/2000/svg">
  <g style="" transform="matrix(1.068319, 0, 0, 1.068319, -0.927179, -0.966216)">
    <path d="M 25 13 C 25 6.383 19.617 1 13 1 C 6.383 1 1 6.383 1 13 C 1 16.384 2.413 19.439 4.674 21.622 C 4.727 21.691 4.789 21.747 4.863 21.794 C 7.004 23.777 9.858 25 13 25 C 16.142 25 18.996 23.777 21.137 21.794 C 21.211 21.747 21.273 21.691 21.326 21.622 C 23.587 19.439 25 16.384 25 13 Z M 13 2.5 C 18.79 2.5 23.5 7.21 23.5 13 C 23.5 15.455 22.647 17.711 21.23 19.501 C 20.579 17.403 18.722 15.761 16.202 15.005 C 17.575 14.011 18.474 12.4 18.474 10.581 C 18.474 7.566 16.019 5.114 13 5.114 C 9.981 5.114 7.526 7.566 7.526 10.581 C 7.526 12.4 8.425 14.011 9.798 15.005 C 7.278 15.761 5.421 17.403 4.77 19.501 C 3.353 17.711 2.5 15.455 2.5 13 C 2.5 7.21 7.21 2.5 13 2.5 Z M 9.026 10.581 C 9.026 8.394 10.809 6.614 13 6.614 C 15.191 6.614 16.974 8.394 16.974 10.581 C 16.974 12.768 15.191 14.547 13 14.547 C 10.809 14.547 9.026 12.768 9.026 10.581 Z M 6.031 20.832 C 6.256 18.082 9.172 16.047 13 16.047 C 16.828 16.047 19.744 18.082 19.969 20.832 C 18.113 22.486 15.676 23.5 13 23.5 C 10.324 23.5 7.887 22.486 6.031 20.832 Z" fill="#1D1D1B"/>
  </g>
</svg>