<?xml version="1.0" encoding="utf-8"?>
<!-- Generator: Adobe Illustrator 26.0.3, SVG Export Plug-In . SVG Version: 6.00 Build 0)  -->
<svg version="1.1" id="Layer_1" xmlns="http://www.w3.org/2000/svg" xmlns:xlink="http://www.w3.org/1999/xlink" x="0px" y="0px"
	 viewBox="0 0 100 100" style="enable-background:new 0 0 100 100;" xml:space="preserve">
<path d="M99.2,84L77.1,61.7c3.6-6.3,5.5-13.3,5.5-20.3C82.6,18.6,64.1,0,41.3,0C18.5,0,0,18.6,0,41.4s18.5,41.4,41.3,41.4
	c7.3,0,14.4-2,20.9-5.8l22,22.3c0.5,0.5,1.2,0.8,1.9,0.8s1.4-0.3,1.9-0.8l11.3-11.4C100.2,86.7,100.2,85.1,99.2,84z M41.3,16.1
	c13.9,0,25.2,11.3,25.2,25.3S55.2,66.6,41.3,66.6S16.1,55.3,16.1,41.4C16.1,27.4,27.4,16.1,41.3,16.1z"/>
</svg>
