<?xml version="1.0" encoding="utf-8"?>
<!-- Generator: Adobe Illustrator 26.0.3, SVG Export Plug-In . SVG Version: 6.00 Build 0)  -->
<svg version="1.1" id="Layer_1" xmlns="http://www.w3.org/2000/svg" xmlns:xlink="http://www.w3.org/1999/xlink" x="0px" y="0px"
	 viewBox="0 0 512 512" style="enable-background:new 0 0 512 512;" xml:space="preserve">
<style type="text/css">
	.st0{fill-rule:evenodd;clip-rule:evenodd;}
</style>
<path class="st0" d="M59.4,118.9c32.8,0,59.4-26.6,59.4-59.4C118.9,26.6,92.3,0,59.4,0C26.6,0,0,26.6,0,59.4
	C0,92.3,26.6,118.9,59.4,118.9z M438.9,169.1C501,194.7,512,246.9,512,320v192H411.4V320c0-100.6-128-91.4-128,18.3V512H182.9V173.7
	h100.6V211C318.4,167.1,388.7,148.5,438.9,169.1z M9.1,173.7h100.6V512H9.1V173.7z"/>
</svg>
