<?xml version="1.0" encoding="utf-8"?>
<!-- Generator: Adobe Illustrator 26.0.3, SVG Export Plug-In . SVG Version: 6.00 Build 0)  -->
<svg version="1.1" id="Layer_1" xmlns="http://www.w3.org/2000/svg" xmlns:xlink="http://www.w3.org/1999/xlink" x="0px" y="0px"
	 viewBox="0 0 20 20" style="enable-background:new 0 0 20 20;" xml:space="preserve">
<style type="text/css">
	.st0{fill-rule:evenodd;clip-rule:evenodd;}
</style>
<desc>Created with Sketch.</desc>
<g id="Page-1">
	<g id="Dribbble-Light-Preview" transform="translate(-140.000000, -7559.000000)">
		<g id="icons" transform="translate(56.000000, 160.000000)">
			<path id="github-_x5B__x23_142_x5D_" class="st0" d="M125.2,7404.2c5.5,0,10,4.6,10,10.3c0,4.5-2.9,8.4-6.8,9.7
				c-0.5,0.1-0.7-0.2-0.7-0.5c0-0.3,0-1.4,0-2.8c0-1-0.3-1.6-0.7-1.9c2.2-0.3,4.6-1.1,4.6-5.1c0-1.1-0.4-2-1-2.8
				c0.1-0.3,0.4-1.3-0.1-2.7c0,0-0.8-0.3-2.7,1.1c-0.8-0.2-1.7-0.3-2.5-0.3c-0.8,0-1.7,0.1-2.5,0.3c-1.9-1.3-2.8-1.1-2.8-1.1
				c-0.5,1.4-0.2,2.5-0.1,2.7c-0.6,0.7-1,1.6-1,2.8c0,3.9,2.3,4.8,4.6,5.1c-0.3,0.3-0.5,0.7-0.6,1.4c-0.6,0.3-2,0.7-2.9-0.9
				c0,0-0.5-1-1.5-1.1c0,0-1,0-0.1,0.6c0,0,0.7,0.3,1.1,1.5c0,0,0.6,1.8,3.4,1.2c0,0.9,0,1.7,0,1.9c0,0.3-0.2,0.6-0.7,0.5
				c-4-1.4-6.8-5.2-6.8-9.7C115.2,7408.8,119.7,7404.2,125.2,7404.2"/>
		</g>
	</g>
</g>
<path id="path10091" d="M16.9,5h1.9v2.1c-0.1,0-0.2,0-0.4,0c-0.2,0-0.4,0-0.6,0h-0.9v4.1c0,1,0.3,1.5,1,1.5c0.5,0,0.9-0.1,1.2-0.4
	v2.2c-0.5,0.3-1.2,0.4-1.9,0.4c-1.1,0-1.8-0.4-2.2-1.1c-0.3-0.6-0.5-1.5-0.5-2.7V7.1h0v0l-0.3,0c-0.2,0-0.4,0-0.7,0.1V5h1.1V4.1
	c0-0.4,0-0.7-0.1-1h2.5c0,0.3-0.1,0.6-0.1,0.9V5L16.9,5z M9.9,14.7c0-0.3,0-0.8,0-1.5V6.4c0-0.7,0-1.2,0-1.4h2.5c0,0.3,0,0.7,0,1.4
	v6.7c0,0.7,0,1.3,0,1.6L9.9,14.7L9.9,14.7z M4.4,4.9c-1,0-1.8,0.3-2.6,1C1.1,6.6,0.7,7.4,0.7,8.5c0,0.7,0.2,1.4,0.6,2
	c0.4,0.6,0.8,0.9,1.2,1.1v0c-0.5,0.2-0.7,0.7-0.7,1.5c0,0.6,0.2,1.1,0.7,1.4v0c-1.4,0.5-2,1.3-2,2.5c0,1.1,0.5,1.8,1.4,2.3
	C2.6,19.8,3.5,20,4.6,20c2.7,0,4.1-1.1,4.1-3.4c0-1.4-1-2.3-3.1-2.6c-0.5-0.1-0.8-0.2-1.1-0.5c-0.2-0.2-0.3-0.4-0.3-0.6
	c0-0.5,0.3-0.9,0.9-0.9c0.9-0.1,1.6-0.5,2.2-1.2c0.6-0.7,0.8-1.5,0.8-2.4C8.1,8,8,7.7,7.9,7.4c0.4-0.1,0.7-0.2,0.9-0.2V4.9
	C7.9,5.2,7.1,5.4,6.4,5.4C5.7,5.1,5.1,4.9,4.4,4.9L4.4,4.9z M4.5,6.9c0.4,0,0.8,0.2,1,0.5c0.2,0.3,0.3,0.7,0.3,1.1
	c0,1-0.4,1.5-1.3,1.5c-0.9,0-1.4-0.5-1.4-1.5C3.1,7.4,3.5,6.9,4.5,6.9L4.5,6.9z M4.6,15.8c1.2,0,1.8,0.4,1.8,1.1
	c0,0.8-0.6,1.2-1.7,1.2c-1.3,0-1.9-0.4-1.9-1.1C2.8,16.2,3.4,15.8,4.6,15.8L4.6,15.8z M12.6,1.7c0,0.9-0.7,1.6-1.5,1.6
	c-0.8,0-1.5-0.7-1.5-1.6S10.3,0,11.1,0C11.9,0,12.6,0.8,12.6,1.7z"/>
</svg>
