<?xml version="1.0" encoding="utf-8"?>

<svg version="1.1" id="Icons" xmlns="http://www.w3.org/2000/svg" xmlns:xlink="http://www.w3.org/1999/xlink" x="0px" y="0px"
	 viewBox="0 0 32 32" style="enable-background:new 0 0 32 32;" xml:space="preserve">
<g>
	<path d="M26,25H16c-0.6,0-1-0.4-1-1V8.1c0-0.5,0.4-0.9,0.9-1C16.3,7,16.7,7,17,7c3.2,0,6.4,2.7,7.5,6.2c0.5-0.1,1-0.2,1.5-0.2
		c3.3,0,6,2.7,6,6S29.3,25,26,25z"/>
</g>
<g>
	<path d="M13,25c-0.6,0-1-0.4-1-1V10c0-0.6,0.4-1,1-1s1,0.4,1,1v14C14,24.6,13.6,25,13,25z"/>
</g>
<g>
	<path d="M10,24c-0.6,0-1-0.4-1-1v-7c0-0.6,0.4-1,1-1s1,0.4,1,1v7C11,23.6,10.6,24,10,24z"/>
</g>
<g>
	<path d="M7,25c-0.6,0-1-0.4-1-1V13c0-0.6,0.4-1,1-1s1,0.4,1,1v11C8,24.6,7.6,25,7,25z"/>
</g>
<g>
	<path d="M4,24c-0.6,0-1-0.4-1-1v-6c0-0.6,0.4-1,1-1s1,0.4,1,1v6C5,23.6,4.6,24,4,24z"/>
</g>
<g>
	<path d="M1,23c-0.6,0-1-0.4-1-1v-4c0-0.6,0.4-1,1-1s1,0.4,1,1v4C2,22.6,1.6,23,1,23z"/>
</g>
</svg>
