<?xml version="1.0" encoding="utf-8"?>
<!-- Generator: Adobe Illustrator 26.0.3, SVG Export Plug-In . SVG Version: 6.00 Build 0)  -->
<svg version="1.1" id="Layer_1" xmlns="http://www.w3.org/2000/svg" xmlns:xlink="http://www.w3.org/1999/xlink" x="0px" y="0px"
	 viewBox="0 0 100 100" style="enable-background:new 0 0 100 100;" xml:space="preserve">
<style type="text/css">
	.st0{fill-rule:evenodd;clip-rule:evenodd;}
</style>
<g transform="translate(2 2)">
	<g>
		<path d="M83.3,98H12.7C4.6,98-2,91.4-2,83.3V12.7C-2,4.6,4.6-2,12.7-2h70.6C91.4-2,98,4.6,98,12.7v70.5C98,91.4,91.4,98,83.3,98z
			 M12.7,3.9c-4.9,0-8.8,4-8.8,8.8v70.5c0,4.9,4,8.8,8.8,8.8h70.6c4.9,0,8.8-4,8.8-8.8V12.7c0-4.9-4-8.8-8.8-8.8H12.7z"/>
	</g>
	<g>
		<path d="M95.1,27.4H1.9c-1.6,0-2.9-1.3-2.9-2.9c0-1.6,1.3-2.9,2.9-2.9h93.2c1.6,0,2.9,1.3,2.9,2.9C98,26.1,96.7,27.4,95.1,27.4z"
			/>
	</g>
	<g>
		<g>
			<path class="st0" d="M26.3,63.6v-6.3h5.2c3.9,0,6.6-2.3,6.6-5.7c0-3.1-2.4-5.5-6.5-5.5c-4.2,0-6.8,2.2-7.1,5.9h-8
				c0.3-7.6,6.2-12.8,15.5-12.8c9.2,0,14.3,5.1,14.3,11.1c0,5-3.2,8.3-7.6,9.4v0.5c5.8,0.8,9.3,4.5,9.3,10.1
				c0,7.3-6.8,12.4-16.2,12.4s-15.7-5.1-16.1-13h8.3c0.3,3.5,3.2,5.7,7.7,5.7c4.4,0,7.5-2.4,7.5-6c0-3.7-2.9-5.9-7.5-5.9H26.3z"/>
		</g>
		<g>
			<path class="st0" d="M65.7,81.7v-33h-0.5l-10.2,7v-8.1l10.7-7.4h8.6v41.4L65.7,81.7z"/>
		</g>
	</g>
</g>
</svg>
